<svg preserveAspectRatio="none" overflow="visible" style="display: block;" width="59.2382" height="5.20293" viewBox="0 0 59.2382 5.20293" fill="none" xmlns="http://www.w3.org/2000/svg">
<g id="Group">
<path id="Vector" d="M4.10598 2.57257C4.10598 3.44936 3.83627 4.10939 3.29762 4.55263C2.7987 4.9616 2.08967 5.16646 1.17128 5.16646C0.715911 5.16646 0.326247 5.14709 0 5.10836V0.317621C0.425573 0.250576 0.884001 0.216309 1.3791 0.216309C2.25393 0.216309 2.91331 0.401799 3.35798 0.772782C3.85614 1.19218 4.10598 1.79186 4.10598 2.57257ZM3.26171 2.59417C3.26171 2.02578 3.10738 1.58998 2.7987 1.28605C2.49003 0.982855 2.03924 0.830887 1.44558 0.830887C1.19344 0.830887 0.978743 0.847276 0.80072 0.881543V4.52357C0.899282 4.53847 1.0796 4.54518 1.34166 4.54518C1.95443 4.54518 2.42738 4.37906 2.7605 4.04681C3.09362 3.71457 3.26171 3.23035 3.26171 2.59417Z" fill="white"/>
<path id="Vector_2" d="M8.58326 3.33833C8.58326 3.87842 8.4251 4.32091 8.10879 4.66806C7.77719 5.02489 7.33787 5.20293 6.78928 5.20293C6.26056 5.20293 5.83958 5.03233 5.52555 4.68966C5.21229 4.34773 5.05566 3.91641 5.05566 3.39644C5.05566 2.85263 5.21688 2.40641 5.54083 2.06001C5.86479 1.71361 6.30029 1.54004 6.84888 1.54004C7.3776 1.54004 7.80241 1.71063 8.12407 2.05256C8.42969 2.3848 8.58326 2.81389 8.58326 3.33833ZM7.75274 3.36366C7.75274 3.03961 7.68093 2.76175 7.53805 2.53007C7.36996 2.24997 7.13081 2.10992 6.81985 2.10992C6.49818 2.10992 6.25369 2.24997 6.0856 2.53007C5.94196 2.76175 5.8709 3.04408 5.8709 3.37782C5.8709 3.70187 5.94272 3.97973 6.0856 4.21141C6.25904 4.49151 6.50047 4.63156 6.8122 4.63156C7.11782 4.63156 7.35773 4.48927 7.53041 4.20396C7.67863 3.96781 7.75274 3.68771 7.75274 3.36366Z" fill="white"/>
<path id="Vector_3" d="M14.5854 1.61158L13.4584 5.12325H12.725L12.2581 3.59835C12.1397 3.21768 12.0434 2.83925 11.9686 2.4638H11.954C11.8845 2.84968 11.7882 3.22737 11.6645 3.59835L11.1686 5.12325H10.4267L9.36699 1.61158H10.1899L10.5971 3.281C10.6957 3.67582 10.7767 4.05202 10.8416 4.4081H10.8561C10.9157 4.1146 11.0143 3.74063 11.1533 3.28845L11.6645 1.61233H12.317L12.8067 3.2527C12.9251 3.65273 13.0214 4.03787 13.0955 4.40885H13.1177C13.1719 4.04755 13.2537 3.66241 13.3622 3.2527L13.7992 1.61233H14.5854V1.61158Z" fill="white"/>
<path id="Vector_4" d="M18.7362 5.12313H17.9355V3.11178C17.9355 2.49199 17.694 2.18209 17.2096 2.18209C16.972 2.18209 16.7802 2.26702 16.6312 2.43761C16.4838 2.6082 16.4089 2.80934 16.4089 3.03952V5.12239H15.6082V2.61491C15.6082 2.3065 15.5982 1.97202 15.5791 1.60998H16.2828L16.3203 2.159H16.3424C16.4356 1.98841 16.5747 1.84761 16.7573 1.73513C16.9743 1.60402 17.2173 1.53772 17.4831 1.53772C17.8193 1.53772 18.099 1.6435 18.3213 1.85581C18.5979 2.11579 18.7362 2.50391 18.7362 3.01941V5.12313V5.12313Z" fill="white"/>
<path id="Vector_5" d="M20.9443 5.12319H20.1444V0.000206765H20.9443V5.12319Z" fill="white"/>
<path id="Vector_6" d="M25.6586 3.33825C25.6586 3.87833 25.5004 4.32083 25.1841 4.66797C24.8525 5.0248 24.4124 5.20284 23.8646 5.20284C23.3351 5.20284 22.9141 5.03225 22.6009 4.68958C22.2876 4.34765 22.131 3.91633 22.131 3.39635C22.131 2.85255 22.2922 2.40632 22.6161 2.05993C22.9401 1.71353 23.3756 1.53996 23.9234 1.53996C24.4529 1.53996 24.877 1.71055 25.1994 2.05248C25.505 2.38472 25.6586 2.81381 25.6586 3.33825ZM24.8273 3.36358C24.8273 3.03953 24.7555 2.76166 24.6126 2.52998C24.4453 2.24989 24.2054 2.10984 23.8952 2.10984C23.5727 2.10984 23.3282 2.24989 23.1609 2.52998C23.0173 2.76166 22.9462 3.044 22.9462 3.37773C22.9462 3.70178 23.018 3.97965 23.1609 4.21132C23.3343 4.49142 23.5758 4.63147 23.8875 4.63147C24.1931 4.63147 24.4323 4.48919 24.605 4.20387C24.7539 3.96773 24.8273 3.68763 24.8273 3.36358Z" fill="white"/>
<path id="Vector_7" d="M29.5339 5.12313H28.8149L28.7553 4.71863H28.7332C28.4871 5.04119 28.1364 5.20284 27.6811 5.20284C27.3411 5.20284 27.066 5.09632 26.859 4.88475C26.671 4.69256 26.577 4.45343 26.577 4.16961C26.577 3.74052 26.7604 3.41349 27.1294 3.18703C27.4977 2.96056 28.0157 2.84957 28.6827 2.85478V2.78923C28.6827 2.32662 28.4337 2.09568 27.9347 2.09568C27.5795 2.09568 27.2662 2.18284 26.9957 2.35567L26.833 1.84315C27.1676 1.64127 27.581 1.53996 28.0684 1.53996C29.0097 1.53996 29.4819 2.02417 29.4819 2.9926V4.28582C29.4819 4.63669 29.4995 4.91604 29.5339 5.12313ZM28.7026 3.91633V3.37475C27.8194 3.35985 27.3777 3.596 27.3777 4.08245C27.3777 4.2657 27.4282 4.40277 27.5313 4.4944C27.6345 4.58603 27.7659 4.63147 27.9225 4.63147C28.0982 4.63147 28.2625 4.57709 28.4123 4.46907C28.5628 4.36031 28.6552 4.2225 28.6896 4.05339C28.698 4.0154 28.7026 3.96922 28.7026 3.91633Z" fill="white"/>
<path id="Vector_8" d="M34.0835 5.12319H33.373L33.3355 4.55926H33.3134C33.0865 4.98835 32.6999 5.20289 32.1566 5.20289C31.7226 5.20289 31.3613 5.03677 31.0747 4.70453C30.7882 4.37228 30.6453 3.94096 30.6453 3.4113C30.6453 2.84291 30.8004 2.38254 31.1122 2.03092C31.414 1.70315 31.7838 1.53926 32.2239 1.53926C32.7075 1.53926 33.046 1.69793 33.2385 2.01602H33.2538V0.000206765H34.0553V4.17711C34.0553 4.51904 34.0644 4.83415 34.0835 5.12319ZM33.2538 3.64224V3.05671C33.2538 2.9554 33.2461 2.87346 33.2316 2.81088C33.1865 2.62315 33.0895 2.46523 32.9421 2.33784C32.7931 2.21046 32.6135 2.14639 32.4065 2.14639C32.1077 2.14639 31.8739 2.26186 31.702 2.49353C31.5316 2.72521 31.4453 3.02095 31.4453 3.38225C31.4453 3.7294 31.527 4.01098 31.6913 4.22776C31.8648 4.4587 32.0986 4.57416 32.3912 4.57416C32.654 4.57416 32.8641 4.47806 33.0238 4.28512C33.1781 4.10708 33.2538 3.89254 33.2538 3.64224Z" fill="white"/>
<path id="Vector_9" d="M40.9318 3.33825C40.9318 3.87833 40.7737 4.32083 40.4574 4.66797C40.1258 5.0248 39.6872 5.20284 39.1379 5.20284C38.6099 5.20284 38.1889 5.03225 37.8741 4.68958C37.5609 4.34765 37.4042 3.91633 37.4042 3.39635C37.4042 2.85255 37.5654 2.40632 37.8894 2.05993C38.2134 1.71353 38.6489 1.53996 39.1982 1.53996C39.7262 1.53996 40.1517 1.71055 40.4726 2.05248C40.7783 2.38472 40.9318 2.81381 40.9318 3.33825ZM40.1021 3.36358C40.1021 3.03953 40.0303 2.76166 39.8874 2.52998C39.7185 2.24989 39.4801 2.10984 39.1684 2.10984C38.8475 2.10984 38.603 2.24989 38.4342 2.52998C38.2905 2.76166 38.2195 3.044 38.2195 3.37773C38.2195 3.70178 38.2913 3.97965 38.4342 4.21132C38.6076 4.49142 38.849 4.63147 39.1608 4.63147C39.4664 4.63147 39.7071 4.48919 39.8797 4.20387C40.0272 3.96773 40.1021 3.68763 40.1021 3.36358Z" fill="white"/>
<path id="Vector_10" d="M45.2371 5.12313H44.4371V3.11178C44.4371 2.49199 44.1957 2.18209 43.7105 2.18209C43.4729 2.18209 43.2811 2.26702 43.1329 2.43761C42.9847 2.6082 42.9106 2.80934 42.9106 3.03952V5.12239H42.1091V2.61491C42.1091 2.3065 42.0999 1.97202 42.0808 1.60998H42.7838L42.8212 2.159H42.8433C42.9373 1.98841 43.0764 1.84761 43.2582 1.73513C43.476 1.60402 43.7182 1.53772 43.9848 1.53772C44.3202 1.53772 44.5999 1.6435 44.8222 1.85581C45.0996 2.11579 45.2371 2.50391 45.2371 3.01941V5.12313V5.12313Z" fill="white"/>
<path id="Vector_11" d="M50.6262 2.19616H49.7445V3.90208C49.7445 4.33564 49.9011 4.55242 50.2113 4.55242C50.3549 4.55242 50.4741 4.5405 50.5681 4.51592L50.5887 5.10815C50.4306 5.16625 50.2228 5.1953 49.9668 5.1953C49.6505 5.1953 49.4045 5.10144 49.2265 4.91372C49.0477 4.72599 48.959 4.41013 48.959 3.96689V2.19616H48.4326V1.61138H48.959V0.967749L49.7437 0.736816V1.61064H50.6254V2.19616H50.6262Z" fill="white"/>
<path id="Vector_12" d="M54.8643 5.12298H54.0629V3.12653C54.0629 2.49705 53.8214 2.18194 53.3378 2.18194C52.9664 2.18194 52.7128 2.36445 52.5737 2.72947C52.55 2.8062 52.5363 2.90007 52.5363 3.01032V5.12223H51.7363V0H52.5363V2.11639H52.5516C52.8037 1.73125 53.1651 1.53905 53.6335 1.53905C53.9651 1.53905 54.2393 1.64484 54.4571 1.85714C54.7283 2.1216 54.8643 2.51493 54.8643 3.0349V5.12298V5.12298Z" fill="white"/>
<path id="Vector_13" d="M59.2382 3.20113C59.2382 3.34118 59.2275 3.45888 59.2084 3.55498H56.8071C56.8178 3.90212 56.9324 4.16658 57.1547 4.34984C57.3579 4.51372 57.62 4.59567 57.9409 4.59567C58.2962 4.59567 58.6201 4.54054 58.912 4.42954L59.0373 4.97186C58.6958 5.11638 58.2939 5.18864 57.8286 5.18864C57.2708 5.18864 56.8315 5.02848 56.5137 4.70815C56.1943 4.38783 56.0361 3.958 56.0361 3.41866C56.0361 2.889 56.1836 2.44799 56.4808 2.09638C56.791 1.72093 57.2105 1.5332 57.74 1.5332C58.258 1.5332 58.6515 1.72093 58.9173 2.09638C59.132 2.39436 59.2382 2.7631 59.2382 3.20113ZM58.4742 2.99925C58.4803 2.76757 58.4276 2.56793 58.3191 2.39957C58.18 2.18279 57.9684 2.07403 57.6819 2.07403C57.4206 2.07403 57.2074 2.17981 57.0447 2.39212C56.9117 2.56123 56.833 2.7631 56.8071 2.99925H58.4742Z" fill="white"/>
</g>
</svg>
